# xmcd CD database file
#
# Track frame offsets:
#	162
#	3555
#	23107
#	33710
#	43642
#	54490
#	62985
#	77060
#	89655
#	106877
#	118517
#	125817
#	137065
#	144880
#	155625
#	165057
#	178480
#	185245
#	191062
#	206352
#	214127
#	216967
#	230357
#	249167
#	262715
#	265185
#	274442
#	287615
#	295405
#	306475
#	318372
#	326072
#	331650
#
# Disc length: 4505 seconds
#
# Revision: 0
# Processed by: cddbd v1.4PL0 Copyright (c) Steve Scherf et al.
# Submitted via: CDex 1.50Beta7
#
DISCID=f7119721
DTITLE=Bing Crosby - The Christmas Songs
DYEAR=1990
DGENRE=Jazz
TTITLE0=Theme: Where The Blue of The Night Meets The Gold Of The Day (#1)
TTITLE1=Adestes Fideles (#1)
TTITLE2=Jingle Bells (#1)
TTITLE3=Eugenie Baird: I Dream Of You
TTITLE4=I'm Making Believe
TTITLE5=The Charioteers: A Slip of The Lip (Can Sink a Ship)
TTITLE6=What A Difference A Day Makes
TTITLE7=Beautiful Saviour
TTITLE8=God Is Ever Beside Me
TTITLE9=Silent Night, Holy Night (#1)
TTITLE10=Broadcast Closing Announcement and Prayer/End Theme: Blue of The Night
TTITLE11=Medley: Happy Holiday - Come To Holiday Inn
TTITLE12=Let's Start The New Year Right
TTITLE13=God Rest You Merry, Gentlemen
TTITLE14=Let It Snow, Let It Snow, Let It Snow!
TTITLE15=I'll Be Home For Christmas
TTITLE16=Adestes Fideles (#2)
TTITLE17=Patter: Crosby and Orson Welles
TTITLE18=White Christmas (#1)
TTITLE19=Closing Announcement by Orson Welles
TTITLE20=Theme: Blue Of The Night (#2)
TTITLE21=Adestes Fideles
TTITLE22=The Christmas Song
TTITLE23=Jingle Bells
TTITLE24=Brief Christmas Greetings from the Pholks at Philco
TTITLE25=White Christmas (#2)
TTITLE26=Silent Night (#2)
TTITLE27=Joy To The World
TTITLE28=The First Noel
TTITLE29=Good King Wenceslas
TTITLE30=Away In A Manger
TTITLE31=Deck The Halls With Boughs of Holly
TTITLE32=Oh, Little Town Of Bethlehem
EXTD=YEAR: 1990
EXTT0=
EXTT1=
EXTT2=
EXTT3=
EXTT4=
EXTT5=
EXTT6=
EXTT7=
EXTT8=
EXTT9=
EXTT10=
EXTT11=
EXTT12=
EXTT13=
EXTT14=
EXTT15=
EXTT16=
EXTT17=
EXTT18=
EXTT19=
EXTT20=
EXTT21=
EXTT22=
EXTT23=
EXTT24=
EXTT25=
EXTT26=
EXTT27=
EXTT28=
EXTT29=
EXTT30=
EXTT31=
EXTT32=
PLAYORDER=
